<svg width="935" height="244" viewBox="0 0 935 244" fill="none" xmlns="http://www.w3.org/2000/svg">
<path d="M297.73 63.61C297.73 56.13 299.417 49.42 302.79 43.48C306.163 37.4667 310.747 32.7733 316.54 29.4C322.407 26.0267 328.897 24.34 336.01 24.34C344.37 24.34 351.667 26.3567 357.9 30.39C364.133 34.4233 368.68 40.1433 371.54 47.55H359.55C357.423 42.93 354.343 39.3733 350.31 36.88C346.35 34.3867 341.583 33.14 336.01 33.14C330.657 33.14 325.853 34.3867 321.6 36.88C317.347 39.3733 314.01 42.93 311.59 47.55C309.17 52.0967 307.96 57.45 307.96 63.61C307.96 69.6967 309.17 75.05 311.59 79.67C314.01 84.2167 317.347 87.7367 321.6 90.23C325.853 92.7233 330.657 93.97 336.01 93.97C341.583 93.97 346.35 92.76 350.31 90.34C354.343 87.8467 357.423 84.29 359.55 79.67H371.54C368.68 87.0033 364.133 92.6867 357.9 96.72C351.667 100.68 344.37 102.66 336.01 102.66C328.897 102.66 322.407 101.01 316.54 97.71C310.747 94.3367 306.163 89.68 302.79 83.74C299.417 77.8 297.73 71.09 297.73 63.61ZM412.731 102.99C407.084 102.99 401.951 101.707 397.331 99.14C392.784 96.5733 389.191 92.9433 386.551 88.25C383.984 83.4833 382.701 77.9833 382.701 71.75C382.701 65.59 384.021 60.1633 386.661 55.47C389.374 50.7033 393.041 47.0733 397.661 44.58C402.281 42.0133 407.451 40.73 413.171 40.73C418.891 40.73 424.061 42.0133 428.681 44.58C433.301 47.0733 436.931 50.6667 439.571 55.36C442.284 60.0533 443.641 65.5167 443.641 71.75C443.641 77.9833 442.247 83.4833 439.461 88.25C436.747 92.9433 433.044 96.5733 428.351 99.14C423.657 101.707 418.451 102.99 412.731 102.99ZM412.731 94.19C416.324 94.19 419.697 93.3467 422.851 91.66C426.004 89.9733 428.534 87.4433 430.441 84.07C432.421 80.6967 433.411 76.59 433.411 71.75C433.411 66.91 432.457 62.8033 430.551 59.43C428.644 56.0567 426.151 53.5633 423.071 51.95C419.991 50.2633 416.654 49.42 413.061 49.42C409.394 49.42 406.021 50.2633 402.941 51.95C399.934 53.5633 397.514 56.0567 395.681 59.43C393.847 62.8033 392.931 66.91 392.931 71.75C392.931 76.6633 393.811 80.8067 395.571 84.18C397.404 87.5533 399.824 90.0833 402.831 91.77C405.837 93.3833 409.137 94.19 412.731 94.19ZM529.292 40.62C533.985 40.62 538.165 41.61 541.832 43.59C545.499 45.4967 548.395 48.3933 550.522 52.28C552.649 56.1667 553.712 60.8967 553.712 66.47V102H543.812V67.9C543.812 61.8867 542.309 57.3033 539.302 54.15C536.369 50.9233 532.372 49.31 527.312 49.31C522.105 49.31 517.962 50.9967 514.882 54.37C511.802 57.67 510.262 62.4733 510.262 68.78V102H500.362V67.9C500.362 61.8867 498.859 57.3033 495.852 54.15C492.919 50.9233 488.922 49.31 483.862 49.31C478.655 49.31 474.512 50.9967 471.432 54.37C468.352 57.67 466.812 62.4733 466.812 68.78V102H456.802V41.72H466.812V50.41C468.792 47.2567 471.432 44.8367 474.732 43.15C478.105 41.4633 481.809 40.62 485.842 40.62C490.902 40.62 495.375 41.7567 499.262 44.03C503.149 46.3033 506.045 49.64 507.952 54.04C509.639 49.7867 512.425 46.4867 516.312 44.14C520.199 41.7933 524.525 40.62 529.292 40.62ZM580.142 52.83C582.122 49.3833 585.055 46.5233 588.942 44.25C592.902 41.9033 597.485 40.73 602.692 40.73C608.045 40.73 612.885 42.0133 617.212 44.58C621.612 47.1467 625.059 50.7767 627.552 55.47C630.045 60.09 631.292 65.48 631.292 71.64C631.292 77.7267 630.045 83.1533 627.552 87.92C625.059 92.6867 621.612 96.39 617.212 99.03C612.885 101.67 608.045 102.99 602.692 102.99C597.559 102.99 593.012 101.853 589.052 99.58C585.165 97.2333 582.195 94.3367 580.142 90.89V130.6H570.132V41.72H580.142V52.83ZM621.062 71.64C621.062 67.0933 620.145 63.1333 618.312 59.76C616.479 56.3867 613.985 53.82 610.832 52.06C607.752 50.3 604.342 49.42 600.602 49.42C596.935 49.42 593.525 50.3367 590.372 52.17C587.292 53.93 584.799 56.5333 582.892 59.98C581.059 63.3533 580.142 67.2767 580.142 71.75C580.142 76.2967 581.059 80.2933 582.892 83.74C584.799 87.1133 587.292 89.7167 590.372 91.55C593.525 93.31 596.935 94.19 600.602 94.19C604.342 94.19 607.752 93.31 610.832 91.55C613.985 89.7167 616.479 87.1133 618.312 83.74C620.145 80.2933 621.062 76.26 621.062 71.64ZM697.928 41.72V102H687.918V93.09C686.011 96.17 683.335 98.59 679.888 100.35C676.515 102.037 672.775 102.88 668.668 102.88C663.975 102.88 659.758 101.927 656.018 100.02C652.278 98.04 649.308 95.1067 647.108 91.22C644.981 87.3333 643.918 82.6033 643.918 77.03V41.72H653.818V75.71C653.818 81.65 655.321 86.2333 658.328 89.46C661.335 92.6133 665.441 94.19 670.648 94.19C676.001 94.19 680.218 92.54 683.298 89.24C686.378 85.94 687.918 81.1367 687.918 74.83V41.72H697.928ZM727.039 49.97V85.5C727.039 88.4333 727.663 90.5233 728.909 91.77C730.156 92.9433 732.319 93.53 735.399 93.53H742.769V102H733.749C728.176 102 723.996 100.717 721.209 98.15C718.423 95.5833 717.029 91.3667 717.029 85.5V49.97H709.219V41.72H717.029V26.54H727.039V41.72H742.769V49.97H727.039ZM760.068 31.93C758.161 31.93 756.548 31.27 755.228 29.95C753.908 28.63 753.248 27.0167 753.248 25.11C753.248 23.2033 753.908 21.59 755.228 20.27C756.548 18.95 758.161 18.29 760.068 18.29C761.901 18.29 763.441 18.95 764.688 20.27C766.008 21.59 766.668 23.2033 766.668 25.11C766.668 27.0167 766.008 28.63 764.688 29.95C763.441 31.27 761.901 31.93 760.068 31.93ZM764.908 41.72V102H754.898V41.72H764.908ZM811.338 40.62C818.671 40.62 824.611 42.8567 829.158 47.33C833.705 51.73 835.978 58.11 835.978 66.47V102H826.078V67.9C826.078 61.8867 824.575 57.3033 821.568 54.15C818.561 50.9233 814.455 49.31 809.248 49.31C803.968 49.31 799.751 50.96 796.598 54.26C793.518 57.56 791.978 62.3633 791.978 68.67V102H781.968V41.72H791.978V50.3C793.958 47.22 796.635 44.8367 800.008 43.15C803.455 41.4633 807.231 40.62 811.338 40.62ZM877.189 40.73C882.396 40.73 886.943 41.8667 890.829 44.14C894.789 46.4133 897.723 49.2733 899.629 52.72V41.72H909.749V103.32C909.749 108.82 908.576 113.697 906.229 117.95C903.883 122.277 900.509 125.65 896.109 128.07C891.783 130.49 886.723 131.7 880.929 131.7C873.009 131.7 866.409 129.83 861.129 126.09C855.849 122.35 852.733 117.253 851.779 110.8H861.679C862.779 114.467 865.053 117.4 868.499 119.6C871.946 121.873 876.089 123.01 880.929 123.01C886.429 123.01 890.903 121.287 894.349 117.84C897.869 114.393 899.629 109.553 899.629 103.32V90.67C897.649 94.19 894.716 97.1233 890.829 99.47C886.943 101.817 882.396 102.99 877.189 102.99C871.836 102.99 866.959 101.67 862.559 99.03C858.233 96.39 854.823 92.6867 852.329 87.92C849.836 83.1533 848.589 77.7267 848.589 71.64C848.589 65.48 849.836 60.09 852.329 55.47C854.823 50.7767 858.233 47.1467 862.559 44.58C866.959 42.0133 871.836 40.73 877.189 40.73ZM899.629 71.75C899.629 67.2033 898.713 63.2433 896.879 59.87C895.046 56.4967 892.553 53.93 889.399 52.17C886.319 50.3367 882.909 49.42 879.169 49.42C875.429 49.42 872.019 50.3 868.939 52.06C865.859 53.82 863.403 56.3867 861.569 59.76C859.736 63.1333 858.819 67.0933 858.819 71.64C858.819 76.26 859.736 80.2933 861.569 83.74C863.403 87.1133 865.859 89.7167 868.939 91.55C872.019 93.31 875.429 94.19 879.169 94.19C882.909 94.19 886.319 93.31 889.399 91.55C892.553 89.7167 895.046 87.1133 896.879 83.74C898.713 80.2933 899.629 76.2967 899.629 71.75ZM325.78 213.77C320.72 213.77 316.173 212.89 312.14 211.13C308.18 209.297 305.063 206.803 302.79 203.65C300.517 200.423 299.343 196.72 299.27 192.54H309.94C310.307 196.133 311.773 199.177 314.34 201.67C316.98 204.09 320.793 205.3 325.78 205.3C330.547 205.3 334.287 204.127 337 201.78C339.787 199.36 341.18 196.28 341.18 192.54C341.18 189.607 340.373 187.223 338.76 185.39C337.147 183.557 335.13 182.163 332.71 181.21C330.29 180.257 327.027 179.23 322.92 178.13C317.86 176.81 313.79 175.49 310.71 174.17C307.703 172.85 305.1 170.797 302.9 168.01C300.773 165.15 299.71 161.337 299.71 156.57C299.71 152.39 300.773 148.687 302.9 145.46C305.027 142.233 307.997 139.74 311.81 137.98C315.697 136.22 320.133 135.34 325.12 135.34C332.307 135.34 338.173 137.137 342.72 140.73C347.34 144.323 349.943 149.09 350.53 155.03H339.53C339.163 152.097 337.623 149.53 334.91 147.33C332.197 145.057 328.603 143.92 324.13 143.92C319.95 143.92 316.54 145.02 313.9 147.22C311.26 149.347 309.94 152.353 309.94 156.24C309.94 159.027 310.71 161.3 312.25 163.06C313.863 164.82 315.807 166.177 318.08 167.13C320.427 168.01 323.69 169.037 327.87 170.21C332.93 171.603 337 172.997 340.08 174.39C343.16 175.71 345.8 177.8 348 180.66C350.2 183.447 351.3 187.26 351.3 192.1C351.3 195.84 350.31 199.36 348.33 202.66C346.35 205.96 343.417 208.637 339.53 210.69C335.643 212.743 331.06 213.77 325.78 213.77ZM392.321 213.99C386.674 213.99 381.541 212.707 376.921 210.14C372.374 207.573 368.781 203.943 366.141 199.25C363.574 194.483 362.291 188.983 362.291 182.75C362.291 176.59 363.611 171.163 366.251 166.47C368.964 161.703 372.631 158.073 377.251 155.58C381.871 153.013 387.041 151.73 392.761 151.73C398.481 151.73 403.651 153.013 408.271 155.58C412.891 158.073 416.521 161.667 419.161 166.36C421.874 171.053 423.231 176.517 423.231 182.75C423.231 188.983 421.837 194.483 419.051 199.25C416.337 203.943 412.634 207.573 407.941 210.14C403.247 212.707 398.041 213.99 392.321 213.99ZM392.321 205.19C395.914 205.19 399.287 204.347 402.441 202.66C405.594 200.973 408.124 198.443 410.031 195.07C412.011 191.697 413.001 187.59 413.001 182.75C413.001 177.91 412.047 173.803 410.141 170.43C408.234 167.057 405.741 164.563 402.661 162.95C399.581 161.263 396.244 160.42 392.651 160.42C388.984 160.42 385.611 161.263 382.531 162.95C379.524 164.563 377.104 167.057 375.271 170.43C373.437 173.803 372.521 177.91 372.521 182.75C372.521 187.663 373.401 191.807 375.161 195.18C376.994 198.553 379.414 201.083 382.421 202.77C385.427 204.383 388.727 205.19 392.321 205.19ZM432.652 182.75C432.652 176.517 433.899 171.09 436.392 166.47C438.885 161.777 442.332 158.147 446.732 155.58C451.205 153.013 456.302 151.73 462.022 151.73C469.429 151.73 475.515 153.527 480.282 157.12C485.122 160.713 488.312 165.7 489.852 172.08H479.072C478.045 168.413 476.029 165.517 473.022 163.39C470.089 161.263 466.422 160.2 462.022 160.2C456.302 160.2 451.682 162.18 448.162 166.14C444.642 170.027 442.882 175.563 442.882 182.75C442.882 190.01 444.642 195.62 448.162 199.58C451.682 203.54 456.302 205.52 462.022 205.52C466.422 205.52 470.089 204.493 473.022 202.44C475.955 200.387 477.972 197.453 479.072 193.64H489.852C488.239 199.8 485.012 204.75 480.172 208.49C475.332 212.157 469.282 213.99 462.022 213.99C456.302 213.99 451.205 212.707 446.732 210.14C442.332 207.573 438.885 203.943 436.392 199.25C433.899 194.557 432.652 189.057 432.652 182.75ZM508.378 142.93C506.472 142.93 504.858 142.27 503.538 140.95C502.218 139.63 501.558 138.017 501.558 136.11C501.558 134.203 502.218 132.59 503.538 131.27C504.858 129.95 506.472 129.29 508.378 129.29C510.212 129.29 511.752 129.95 512.998 131.27C514.318 132.59 514.978 134.203 514.978 136.11C514.978 138.017 514.318 139.63 512.998 140.95C511.752 142.27 510.212 142.93 508.378 142.93ZM513.218 152.72V213H503.208V152.72H513.218ZM585.279 180.55C585.279 182.457 585.169 184.473 584.949 186.6H536.769C537.135 192.54 539.152 197.197 542.819 200.57C546.559 203.87 551.069 205.52 556.349 205.52C560.675 205.52 564.269 204.53 567.129 202.55C570.062 200.497 572.115 197.783 573.289 194.41H584.069C582.455 200.203 579.229 204.933 574.389 208.6C569.549 212.193 563.535 213.99 556.349 213.99C550.629 213.99 545.495 212.707 540.949 210.14C536.475 207.573 532.955 203.943 530.389 199.25C527.822 194.483 526.539 188.983 526.539 182.75C526.539 176.517 527.785 171.053 530.279 166.36C532.772 161.667 536.255 158.073 540.729 155.58C545.275 153.013 550.482 151.73 556.349 151.73C562.069 151.73 567.129 152.977 571.529 155.47C575.929 157.963 579.302 161.41 581.649 165.81C584.069 170.137 585.279 175.05 585.279 180.55ZM574.939 178.46C574.939 174.647 574.095 171.383 572.409 168.67C570.722 165.883 568.412 163.793 565.479 162.4C562.619 160.933 559.429 160.2 555.909 160.2C550.849 160.2 546.522 161.813 542.929 165.04C539.409 168.267 537.392 172.74 536.879 178.46H574.939ZM610.701 160.97V196.5C610.701 199.433 611.325 201.523 612.571 202.77C613.818 203.943 615.981 204.53 619.061 204.53H626.431V213H617.411C611.838 213 607.658 211.717 604.871 209.15C602.085 206.583 600.691 202.367 600.691 196.5V160.97H592.881V152.72H600.691V137.54H610.701V152.72H626.431V160.97H610.701ZM690.48 152.72L654.18 241.38H643.84L655.72 212.34L631.41 152.72H642.52L661.44 201.56L680.14 152.72H690.48Z" fill="black"/>
<path d="M724.16 179.252C722.408 179.252 720.824 178.952 719.408 178.352C718.016 177.752 716.912 176.888 716.096 175.76C715.28 174.632 714.86 173.3 714.836 171.764H720.236C720.308 172.796 720.668 173.612 721.316 174.212C721.988 174.812 722.9 175.112 724.052 175.112C725.228 175.112 726.152 174.836 726.824 174.284C727.496 173.708 727.832 172.964 727.832 172.052C727.832 171.308 727.604 170.696 727.148 170.216C726.692 169.736 726.116 169.364 725.42 169.1C724.748 168.812 723.812 168.5 722.612 168.164C720.98 167.684 719.648 167.216 718.616 166.76C717.608 166.28 716.732 165.572 715.988 164.636C715.268 163.676 714.908 162.404 714.908 160.82C714.908 159.332 715.28 158.036 716.024 156.932C716.768 155.828 717.812 154.988 719.156 154.412C720.5 153.812 722.036 153.512 723.764 153.512C726.356 153.512 728.456 154.148 730.064 155.42C731.696 156.668 732.596 158.42 732.764 160.676H727.22C727.172 159.812 726.8 159.104 726.104 158.552C725.432 157.976 724.532 157.688 723.404 157.688C722.42 157.688 721.628 157.94 721.028 158.444C720.452 158.948 720.164 159.68 720.164 160.64C720.164 161.312 720.38 161.876 720.812 162.332C721.268 162.764 721.82 163.124 722.468 163.412C723.14 163.676 724.076 163.988 725.276 164.348C726.908 164.828 728.24 165.308 729.272 165.788C730.304 166.268 731.192 166.988 731.936 167.948C732.68 168.908 733.052 170.168 733.052 171.728C733.052 173.072 732.704 174.32 732.008 175.472C731.312 176.624 730.292 177.548 728.948 178.244C727.604 178.916 726.008 179.252 724.16 179.252ZM742.39 153.872V169.424C742.39 171.128 742.834 172.436 743.722 173.348C744.61 174.236 745.858 174.68 747.466 174.68C749.098 174.68 750.358 174.236 751.246 173.348C752.134 172.436 752.578 171.128 752.578 169.424V153.872H757.654V169.388C757.654 171.524 757.186 173.336 756.25 174.824C755.338 176.288 754.102 177.392 752.542 178.136C751.006 178.88 749.29 179.252 747.394 179.252C745.522 179.252 743.818 178.88 742.282 178.136C740.77 177.392 739.57 176.288 738.682 174.824C737.794 173.336 737.35 171.524 737.35 169.388V153.872H742.39ZM784.015 179H778.975L767.563 161.756V179H762.523V153.836H767.563L778.975 171.116V153.836H784.015V179ZM808.976 153.872L800.48 170.252V179H795.44V170.252L786.908 153.872H792.596L797.996 165.356L803.36 153.872H808.976ZM729.668 212L720.524 200.804V212H715.484V186.872H720.524V198.14L729.668 186.872H735.752L725.384 199.328L736.04 212H729.668ZM748.211 212.324C746.291 212.324 744.563 211.904 743.027 211.064C741.491 210.2 740.279 208.988 739.391 207.428C738.527 205.868 738.095 204.068 738.095 202.028C738.095 199.988 738.539 198.188 739.427 196.628C740.339 195.068 741.575 193.868 743.135 193.028C744.695 192.164 746.435 191.732 748.355 191.732C750.275 191.732 752.015 192.164 753.575 193.028C755.135 193.868 756.359 195.068 757.247 196.628C758.159 198.188 758.615 199.988 758.615 202.028C758.615 204.068 758.147 205.868 757.211 207.428C756.299 208.988 755.051 210.2 753.467 211.064C751.907 211.904 750.155 212.324 748.211 212.324ZM748.211 207.932C749.123 207.932 749.975 207.716 750.767 207.284C751.583 206.828 752.231 206.156 752.711 205.268C753.191 204.38 753.431 203.3 753.431 202.028C753.431 200.132 752.927 198.68 751.919 197.672C750.935 196.64 749.723 196.124 748.283 196.124C746.843 196.124 745.631 196.64 744.647 197.672C743.687 198.68 743.207 200.132 743.207 202.028C743.207 203.924 743.675 205.388 744.611 206.42C745.571 207.428 746.771 207.932 748.211 207.932ZM767.352 195.152C768 194.096 768.84 193.268 769.872 192.668C770.928 192.068 772.128 191.768 773.472 191.768V197.06H772.14C770.556 197.06 769.356 197.432 768.54 198.176C767.748 198.92 767.352 200.216 767.352 202.064V212H762.312V192.056H767.352V195.152ZM795.407 201.596C795.407 202.316 795.359 202.964 795.263 203.54H780.683C780.803 204.98 781.307 206.108 782.195 206.924C783.083 207.74 784.175 208.148 785.471 208.148C787.343 208.148 788.675 207.344 789.467 205.736H794.903C794.327 207.656 793.223 209.24 791.591 210.488C789.959 211.712 787.955 212.324 785.579 212.324C783.659 212.324 781.931 211.904 780.395 211.064C778.883 210.2 777.695 208.988 776.831 207.428C775.991 205.868 775.571 204.068 775.571 202.028C775.571 199.964 775.991 198.152 776.831 196.592C777.671 195.032 778.847 193.832 780.359 192.992C781.871 192.152 783.611 191.732 785.579 191.732C787.475 191.732 789.167 192.14 790.655 192.956C792.167 193.772 793.331 194.936 794.147 196.448C794.987 197.936 795.407 199.652 795.407 201.596ZM790.187 200.156C790.163 198.86 789.695 197.828 788.783 197.06C787.871 196.268 786.755 195.872 785.435 195.872C784.187 195.872 783.131 196.256 782.267 197.024C781.427 197.768 780.911 198.812 780.719 200.156H790.187ZM797.79 201.956C797.79 199.94 798.186 198.152 798.978 196.592C799.794 195.032 800.886 193.832 802.254 192.992C803.646 192.152 805.194 191.732 806.898 191.732C808.386 191.732 809.682 192.032 810.786 192.632C811.914 193.232 812.814 193.988 813.486 194.9V192.056H818.562V212H813.486V209.084C812.838 210.02 811.938 210.8 810.786 211.424C809.658 212.024 808.35 212.324 806.862 212.324C805.182 212.324 803.646 211.892 802.254 211.028C800.886 210.164 799.794 208.952 798.978 207.392C798.186 205.808 797.79 203.996 797.79 201.956ZM813.486 202.028C813.486 200.804 813.246 199.76 812.766 198.896C812.286 198.008 811.638 197.336 810.822 196.88C810.006 196.4 809.13 196.16 808.194 196.16C807.258 196.16 806.394 196.388 805.602 196.844C804.81 197.3 804.162 197.972 803.658 198.86C803.178 199.724 802.938 200.756 802.938 201.956C802.938 203.156 803.178 204.212 803.658 205.124C804.162 206.012 804.81 206.696 805.602 207.176C806.418 207.656 807.282 207.896 808.194 207.896C809.13 207.896 810.006 207.668 810.822 207.212C811.638 206.732 812.286 206.06 812.766 205.196C813.246 204.308 813.486 203.252 813.486 202.028Z" fill="#004C93"/>
<path d="M-7.62939e-05 78.5386V154.382L111.812 89.6376V14L-7.62939e-05 78.5386Z" fill="url(#paint0_linear)"/>
<path d="M-7.62939e-05 78.5386V154.382L111.812 89.6376V14L-7.62939e-05 78.5386Z" fill="url(#paint1_diamond)"/>
<path d="M88.792 130.334V205.972L0 154.587V78.9497L88.792 130.334Z" fill="url(#paint2_linear)"/>
<path d="M244.589 89.8429V165.275L155.797 113.891V38.2532L244.589 89.8429Z" fill="url(#paint3_linear)"/>
<path d="M244.589 89.8429V165.275L155.797 113.891V38.2532L244.589 89.8429Z" fill="url(#paint4_diamond)"/>
<path d="M133.188 154.587V230.43L245 165.275V90.0486L133.188 154.587Z" fill="url(#paint5_linear)"/>
<defs>
<linearGradient id="paint0_linear" x1="48.5066" y1="51.4077" x2="78.515" y2="108.547" gradientUnits="userSpaceOnUse">
<stop stop-color="#11EDAE"/>
<stop offset="1" stop-color="#0FD29A"/>
</linearGradient>
<radialGradient id="paint1_diamond" cx="0" cy="0" r="1" gradientUnits="userSpaceOnUse" gradientTransform="translate(-5.86831e-05 154.587) rotate(-4.48764) scale(152.359 159.283)">
<stop/>
<stop offset="1" stop-color="#11EDAE" stop-opacity="0"/>
</radialGradient>
<linearGradient id="paint2_linear" x1="49.7399" y1="107.93" x2="17.6762" y2="165.07" gradientUnits="userSpaceOnUse">
<stop offset="0.276042" stop-color="#752CFF"/>
<stop offset="1" stop-color="#4F00E0"/>
</linearGradient>
<linearGradient id="paint3_linear" x1="207.387" y1="68.2616" x2="175.734" y2="124.579" gradientUnits="userSpaceOnUse">
<stop stop-color="#11EDAE"/>
<stop offset="1" stop-color="#0FD29A"/>
</linearGradient>
<radialGradient id="paint4_diamond" cx="0" cy="0" r="1" gradientUnits="userSpaceOnUse" gradientTransform="translate(244.589 165.275) rotate(-90) scale(122.706 272.071)">
<stop/>
<stop offset="1" stop-color="#11EDAE" stop-opacity="0"/>
</radialGradient>
<linearGradient id="paint5_linear" x1="173.884" y1="131.156" x2="207.387" y2="186.445" gradientUnits="userSpaceOnUse">
<stop offset="0.1875" stop-color="#752CFF"/>
<stop offset="1" stop-color="#4F00E0"/>
</linearGradient>
</defs>
</svg>
